<svg width="339" height="346" viewBox="0 0 339 346" fill="none" xmlns="http://www.w3.org/2000/svg">
<path d="M165.527 0.024762C166.353 0.0238053 167.179 0.0228485 168.03 0.0218628C169.774 0.0211834 171.518 0.0230213 173.262 0.0272034C175.924 0.0325481 178.586 0.027254 181.248 0.0208557C182.945 0.0215167 184.643 0.0227982 186.34 0.024762C187.529 0.0217256 187.529 0.0217256 188.742 0.018628C192.618 0.0349726 196.233 0.211884 200 1.15757C200 1.81757 200 2.47757 200 3.15757C201.794 3.03382 201.794 3.03382 203.625 2.90757C212.073 2.88076 220.249 6.04138 228 9.15757C229.134 9.44632 230.269 9.73507 231.438 10.0326C235.238 11.2327 237.696 12.9546 241 15.1576C243.587 16.2251 246.189 17.1987 248.828 18.1302C251 19.1576 251 19.1576 253 22.1576C254.784 23.0188 254.784 23.0188 256.812 23.5951C262.195 25.4862 265.425 28.4085 269 32.7826C271.471 35.7652 273.333 36.8412 277 38.1576C279.968 40.788 281.739 42.3761 283 46.1576C285.583 49.4743 288.376 51.7951 292.524 52.721C295.497 52.946 298.421 52.9884 301.402 52.9623C302.48 52.976 303.558 52.9897 304.668 53.0038C308.092 53.041 311.514 53.0374 314.938 53.0326C317.266 53.0507 319.595 53.0715 321.924 53.0951C327.616 53.1469 333.308 53.1651 339 53.1576C338.328 57.0505 337.425 59.0535 335 62.1576C334.67 63.0032 334.34 63.8488 334 64.7201C332.96 67.2561 331.9 68.2574 330 70.1576C329.67 70.9826 329.34 71.8076 329 72.6576C328 75.1576 328 75.1576 326.523 76.5521C324.728 78.4443 324.307 79.8445 323.625 82.3451C322.596 85.7472 321.352 88.3134 319.312 91.2201C316.521 95.4629 316.35 98.1204 317 103.158C317.474 104.065 317.949 104.973 318.438 105.908C320.787 110.794 320.748 115.798 321 121.158C321.66 121.158 322.32 121.158 323 121.158C323.772 126.646 324.159 131.966 324.168 137.505C324.171 138.28 324.175 139.054 324.178 139.852C324.183 141.483 324.185 143.114 324.185 144.745C324.187 147.189 324.206 149.633 324.225 152.077C324.303 174.247 324.303 174.247 321 184.158C320.34 184.158 319.68 184.158 319 184.158C318.951 184.821 318.902 185.485 318.852 186.169C318.109 194.94 318.109 194.94 316 199.158C315.34 199.158 314.68 199.158 314 199.158C313.87 200.066 313.87 200.066 313.738 200.994C311.815 212.463 306.253 221.005 298.812 229.72C296.807 232.202 296.807 232.202 295.562 235.72C293.836 239.519 292.269 240.686 289 243.158C288.381 244.106 287.762 245.055 287.125 246.033C284.935 249.253 282.715 251.279 279.73 253.716C277.79 255.288 277.79 255.288 275.375 257.783C273 260.158 273 260.158 270.25 262.345C267.925 263.961 267.925 263.961 267 266.158C265.223 267.228 265.223 267.228 263.062 268.283C261.997 268.812 261.997 268.812 260.91 269.353C259 270.158 259 270.158 257 270.158C256.67 271.148 256.34 272.138 256 273.158C255.01 273.158 254.02 273.158 253 273.158C252.67 274.148 252.34 275.138 252 276.158C246.794 279.591 239.365 284.158 233 284.158C232.67 285.148 232.34 286.138 232 287.158C229.375 288.22 229.375 288.22 226 289.158C222.034 290.288 218.126 291.436 214.25 292.845C209.858 294.344 205.617 294.791 201 295.158C200.567 296.354 200.134 297.55 199.688 298.783C196.53 307.179 192.045 314.656 187 322.033C184.04 326.391 181.738 330.548 179.984 335.513C179 337.158 179 337.158 176.891 337.896C176.267 337.982 175.643 338.069 175 338.158C174.515 337.309 174.031 336.461 173.531 335.587C173.211 335.028 172.892 334.468 172.562 333.892C171.844 332.635 171.126 331.378 170.408 330.121C168.588 326.934 166.766 323.748 164.934 320.568C161.565 314.713 158.234 308.838 155 302.908C154.423 301.851 153.845 300.793 153.25 299.704C152 297.158 152 297.158 152 295.158C150.09 295.009 150.09 295.009 148.141 294.857C142.749 294.253 137.863 292.736 132.75 290.97C131.369 290.5 131.369 290.5 129.959 290.021C122.718 287.51 115.858 284.587 109 281.158C107.884 280.641 106.767 280.124 105.617 279.591C104.527 279.077 103.436 278.562 102.312 278.033C101.339 277.576 100.366 277.12 99.3633 276.65C96.7326 274.989 96.3204 273.866 95 271.158C93.1201 270.532 93.1201 270.532 91 270.158C85.6718 267.146 81.215 263.589 77 259.158C75.7543 258.111 74.5038 257.07 73.25 256.033C67.735 251.263 61.3373 245.169 59 238.158C58.34 238.158 57.68 238.158 57 238.158C56.67 237.168 56.34 236.178 56 235.158C55.01 234.498 54.02 233.838 53 233.158C52.281 231.513 51.6216 229.842 51 228.158C49.4595 225.272 47.8525 222.43 46.2422 219.583C45 217.158 45 217.158 45 215.158C44.34 215.158 43.68 215.158 43 215.158C39.676 208.623 38.0294 202.404 37 195.158C36.34 195.158 35.68 195.158 35 195.158C34.3234 192.472 33.6585 189.785 33 187.095C32.8092 186.343 32.6184 185.591 32.4219 184.816C31.2859 180.13 30.7951 175.978 31 171.158C30.34 171.158 29.68 171.158 29 171.158C28.0096 163.212 27.8168 155.346 27.8125 147.345C27.8003 146.164 27.788 144.982 27.7754 143.765C27.7571 132.66 28.9894 122.071 32.5625 111.533C32.7836 110.853 33.0046 110.174 33.2324 109.474C33.8119 107.699 34.4051 105.928 35 104.158C36.6224 99.2904 36.706 95.5977 34.4258 90.9466C33.3797 89.3804 33.3797 89.3804 32.3125 87.7826C31.5702 86.6429 30.8293 85.5023 30.0898 84.3607C29.4002 83.3037 28.7105 82.2466 28 81.1576C25.7359 77.2833 23.6272 73.3252 21.5039 69.3724C18.2783 63.3552 18.2783 63.3552 14.625 57.5951C13 55.1576 13 55.1576 13 53.1576C13.602 53.1717 14.204 53.1858 14.8242 53.2004C21.1361 53.3364 27.4447 53.3869 33.7581 53.3895C36.1082 53.4015 38.4583 53.4346 40.8079 53.4901C54.5769 54.4415 54.5769 54.4415 66.8491 49.5423C68.8546 47.5045 70.282 45.52 71.9109 43.1293C74.2432 39.8116 76.5673 38.2556 80 36.1576C80.7631 35.3944 81.5263 34.6313 82.3125 33.8451C94.5018 21.6557 110.641 13.1834 127 8.15757C129 7.44967 131 6.74135 133 6.03257C138.575 4.18173 144.214 2.9308 149.969 1.77086C151.638 1.43316 153.305 1.0746 154.948 0.627332C158.426 -0.168916 161.976 0.0157188 165.527 0.024762Z" fill="#394A57"/>
<path d="M315 75.1562C313.96 77.8757 312.848 80.4472 311.5 83.0312C309.881 86.151 309.881 86.151 309.062 89.7188C307.924 93.4029 306.464 95.2437 304 98.1562C302.967 100.139 301.966 102.14 301 104.156C299.438 107.031 299.438 107.031 298 109.156C297.34 109.156 296.68 109.156 296 109.156C296 110.476 296 111.796 296 113.156C295.34 113.156 294.68 113.156 294 113.156C293.711 113.878 293.423 114.6 293.125 115.344C292.568 116.736 292.568 116.736 292 118.156C291.67 119.064 291.34 119.971 291 120.906C290 123.156 290 123.156 288 124.156C287.269 125.819 286.543 127.484 285.863 129.168C284.495 132.318 282.748 135.203 281 138.156C280.34 138.156 279.68 138.156 279 138.156C278.897 139.043 278.794 139.93 278.688 140.844C276.382 145.369 273.665 146.001 269.09 147.871C262.106 150.776 255.877 154.422 250 159.156C246.683 160.889 243.804 162.156 240 162.156C239.763 162.749 239.526 163.342 239.281 163.953C237.72 166.637 236.1 167.735 233.5 169.406C232.706 169.927 231.912 170.448 231.094 170.984C229 172.156 229 172.156 227 172.156C226.505 174.136 226.505 174.136 226 176.156C225.34 176.156 224.68 176.156 224 176.156C223.773 176.734 223.546 177.311 223.312 177.906C222 180.156 222 180.156 219.625 182.031C216.676 184.419 214.974 186.939 213 190.156C213.784 189.661 214.567 189.166 215.375 188.656C218 187.156 218 187.156 220 187.156C220 186.496 220 185.836 220 185.156C233.633 179.785 233.633 179.785 240 178.156C240 177.496 240 176.836 240 176.156C246.154 174.333 251.596 173.92 258 174.156C257.158 178.171 255.276 180.743 253 184.156C251.962 186.473 250.958 188.805 250 191.156C249.023 193.355 248.315 194.853 246.586 196.519C243.707 199.491 241.982 203.239 240 206.844C239.562 207.622 239.123 208.4 238.672 209.201C236.588 212.963 234.77 216.603 233.375 220.676C232.694 222.399 232.694 222.399 232 224.156C231.01 224.486 230.02 224.816 229 225.156C228.38 227.222 227.761 229.288 227.145 231.355C225.472 235.449 222.921 238.839 220.349 242.398C217.396 246.506 215.076 250.554 213 255.156C212.34 255.156 211.68 255.156 211 255.156C210.925 255.725 210.85 256.293 210.773 256.879C209.837 262.377 208.342 265.395 204.516 269.406C202.445 271.797 201.261 274.385 199.941 277.238C199 279.156 199 279.156 196.812 282.406C194.911 284.954 194.911 284.954 194.438 287.469C194.293 288.026 194.149 288.582 194 289.156C193.01 289.486 192.02 289.816 191 290.156C189.898 292.012 189.898 292.012 189.062 294.281C187.328 298.467 185.318 302.266 183 306.156C182.67 306.156 182.34 306.156 182 306.156C182 255.006 182 203.856 182 151.156C183.98 150.166 183.98 150.166 186 149.156C186.433 148.702 186.866 148.249 187.312 147.781C190.668 144.55 195.121 142.624 199.207 140.449C200.356 139.837 201.504 139.225 202.688 138.594C203.784 138.015 204.881 137.436 206.012 136.84C208.936 135.281 208.936 135.281 211.148 133.527C213.075 132.1 214.658 131.476 216.938 130.781C219.974 129.717 221.04 129.115 223.375 126.719C226.514 123.655 229.364 122.684 233.43 121.203C236.679 119.88 239.433 118.102 242.309 116.109C244 115.156 244 115.156 247 115.156C247.33 114.166 247.66 113.176 248 112.156C250.836 110.367 250.836 110.367 254.375 108.531C255.538 107.92 256.7 107.309 257.898 106.68C261 105.156 261 105.156 264 104.156C264 103.496 264 102.836 264 102.156C265.458 101.427 266.917 100.698 268.375 99.9688C269.284 99.5137 270.193 99.0587 271.129 98.5898C272.989 97.6612 274.851 96.7364 276.715 95.8164C277.572 95.3923 278.429 94.9682 279.312 94.5312C280.092 94.1471 280.872 93.763 281.676 93.3672C285.108 91.579 288.359 89.5838 291.578 87.4375C296.709 84.0166 301.312 81.3561 307.32 79.8594C307.875 79.6273 308.429 79.3953 309 79.1562C309.33 78.1662 309.66 77.1762 310 76.1562C313 75.1562 313 75.1562 315 75.1562Z" fill="#8FCE89"/>
<path d="M43 63.1545C53.6396 63.0851 64.2792 63.0317 74.919 62.9991C79.8592 62.9834 84.7993 62.9621 89.7395 62.9282C94.5052 62.8956 99.2707 62.8777 104.036 62.8699C105.857 62.8643 107.677 62.8535 109.497 62.8373C112.042 62.8156 114.587 62.8125 117.132 62.8139C117.888 62.8031 118.644 62.7924 119.423 62.7812C124.553 62.8117 124.553 62.8117 126.875 64.5908C127.246 65.1068 127.617 65.6229 128 66.1545C130.921 68.2721 133.972 70.1947 137 72.1545C137.92 72.7617 138.841 73.3688 139.789 73.9944C148.133 79.4304 156.654 82.8251 166 86.1545C166 86.8145 166 87.4745 166 88.1545C171.28 89.4745 176.56 90.7945 182 92.1545C182 92.8145 182 93.4745 182 94.1545C188.93 94.6495 188.93 94.6495 196 95.1545C194.763 94.5358 193.525 93.917 192.25 93.2795C190.833 92.5712 189.417 91.8628 188 91.1545C187.002 90.7175 187.002 90.7175 185.984 90.2717C183.558 88.9059 181.954 87.1306 180 85.1545C178.435 84.0849 176.851 83.0441 175.25 82.0295C170.413 78.7358 167.137 74.9889 163.691 70.2912C162.005 67.9353 162.005 67.9353 159 66.1545C159 65.1645 159 64.1745 159 63.1545C208.83 63.1545 258.66 63.1545 310 63.1545C309.67 64.1445 309.34 65.1345 309 66.1545C307.082 66.9152 305.158 67.6654 303.203 68.3264C301.013 69.1496 299.131 70.145 297.125 71.342C294 73.1545 294 73.1545 292 73.1545C292 73.8145 292 74.4745 292 75.1545C290.73 75.8029 289.459 76.4481 288.188 77.092C287.48 77.4517 286.772 77.8113 286.043 78.1819C284 79.1545 284 79.1545 281 80.1545C280.67 81.1445 280.34 82.1345 280 83.1545C278.01 84.1739 276.007 85.1691 274 86.1545C272.779 87.1174 271.571 88.0981 270.375 89.092C266.157 92.3918 261.784 93.6245 256.707 95.1506C253.244 96.435 251.357 98.3555 249 101.155C246.276 102.837 245.261 103.155 242 103.155C242 103.815 242 104.475 242 105.155C230 111.155 230 111.155 226.77 112.76C221.853 115.118 221.853 115.118 217.727 118.576C215.404 120.699 212.949 121.659 210.062 122.905C204.23 125.507 198.807 128.503 193.363 131.834C191 133.155 191 133.155 189 133.155C188.67 134.145 188.34 135.135 188 136.155C183.973 138.816 180.132 140.174 175.312 140.092C171.93 139.135 169.062 137.872 166 136.155C166 135.495 166 134.835 166 134.155C165.131 133.894 164.262 133.634 163.367 133.365C159.978 132.147 157.198 130.646 154.125 128.78C150.712 126.74 147.331 124.757 143.75 123.03C140.488 121.445 137.481 119.613 134.43 117.658C129.05 114.329 123.505 111.27 118 108.155C118 107.495 118 106.835 118 106.155C116.928 105.907 115.855 105.66 114.75 105.405C110.774 104.079 109.826 103.064 107 100.155C101.743 96.764 101.743 96.764 95.9062 94.6975C93.5335 94.0216 92.6986 92.9173 91 91.1545C89.4269 90.1856 87.8175 89.2745 86.1875 88.4045C85.2194 87.8876 84.2513 87.3707 83.2539 86.8381C78.5858 84.4228 73.882 82.0842 69.1641 79.7678C61.3024 75.7593 61.3024 75.7593 60 73.1545C58.4056 72.4421 56.8066 71.7386 55.1875 71.0842C51.0273 69.3161 47.0269 67.2044 43 65.1545C43 64.4945 43 63.8345 43 63.1545Z" fill="#91CD86"/>
<path d="M37 74.1562C45.2085 77.2861 52.7163 81.7836 59.9297 86.7617C65.0105 90.1841 70.3971 92.9976 75.8125 95.8438C76.9949 96.4673 76.9949 96.4673 78.2012 97.1035C80.1335 98.1224 82.0664 99.1399 84 100.156C84 100.816 84 101.476 84 102.156C85.4541 102.466 85.4541 102.466 86.9375 102.781C91.0867 103.95 94.1544 106.171 97.6484 108.633C100.7 110.61 103.877 111.962 107.25 113.297C109 114.156 109 114.156 110 116.156C112.31 117.21 114.643 118.213 117 119.156C117 119.816 117 120.476 117 121.156C118.176 121.497 118.176 121.497 119.375 121.844C124.123 123.563 128.521 125.837 133 128.156C133 128.816 133 129.476 133 130.156C134.98 130.816 136.96 131.476 139 132.156C139 132.816 139 133.476 139 134.156C140.288 134.555 140.288 134.555 141.602 134.961C145.029 136.166 148.142 137.629 151.375 139.281C152.435 139.82 153.494 140.359 154.586 140.914C155.383 141.324 156.179 141.734 157 142.156C157 142.816 157 143.476 157 144.156C157.592 144.338 158.183 144.52 158.793 144.707C159.583 144.958 160.373 145.21 161.188 145.469C161.965 145.712 162.742 145.956 163.543 146.207C166.383 147.304 168.573 148.292 171 150.156C171.615 152.946 171.615 152.946 171.601 156.401C171.608 157.71 171.615 159.018 171.622 160.366C171.604 161.819 171.586 163.272 171.568 164.725C171.566 166.253 171.567 167.78 171.57 169.308C171.571 173.459 171.542 177.609 171.507 181.759C171.476 186.096 171.473 190.432 171.467 194.768C171.451 202.981 171.41 211.194 171.36 219.407C171.304 228.756 171.277 238.105 171.252 247.455C171.199 266.689 171.111 285.922 171 305.156C170.34 305.156 169.68 305.156 169 305.156C168.496 303.866 167.997 302.574 167.5 301.281C167.082 300.202 167.082 300.202 166.656 299.102C166 297.156 166 297.156 166 295.156C165.01 294.826 164.02 294.496 163 294.156C161.281 291.609 161.281 291.609 159.5 288.406C158.912 287.36 158.324 286.313 157.719 285.234C157.152 284.219 156.584 283.203 156 282.156C155.493 281.313 154.987 280.47 154.465 279.602C152.924 277.03 151.487 274.419 150.062 271.781C148.298 268.521 146.507 265.288 144.625 262.094C143 259.156 143 259.156 143 257.156C142.34 257.156 141.68 257.156 141 257.156C140.702 256.586 140.405 256.016 140.098 255.428C138.755 252.857 137.409 250.288 136.062 247.719C135.594 246.821 135.125 245.923 134.643 244.998C133.971 243.717 133.971 243.717 133.285 242.41C132.871 241.619 132.458 240.829 132.031 240.014C131.136 238.201 131.136 238.201 130 237.156C129.936 234.217 129.934 231.301 129.973 228.363C129.985 226.516 129.998 224.669 130.01 222.822C130.034 219.915 130.062 217.009 130.096 214.102C130.218 202.9 130.081 192.2 128 181.156C127.833 180.211 127.665 179.266 127.492 178.292C127.024 175.719 126.519 173.157 126 170.594C125.835 169.745 125.67 168.896 125.5 168.021C125.335 167.198 125.17 166.375 125 165.527C124.856 164.805 124.711 164.082 124.562 163.338C123.918 160.84 123 158.531 122 156.156C121.962 157.192 121.962 157.192 121.924 158.248C121.807 161.405 121.685 164.562 121.562 167.719C121.523 168.805 121.484 169.891 121.443 171.01C120.957 183.318 118.303 193.606 114 205.156C113.01 205.156 112.02 205.156 111 205.156C110.674 204.397 110.348 203.638 110.012 202.855C109.575 201.862 109.138 200.868 108.688 199.844C108.044 198.365 108.044 198.365 107.387 196.855C106.108 194.366 104.958 193.07 103 191.156C102.256 188.846 101.578 186.513 101 184.156C100.34 184.156 99.68 184.156 99 184.156C98.7431 183.667 98.4861 183.179 98.2214 182.675C97.0449 180.439 95.8662 178.204 94.6875 175.969C94.2834 175.2 93.8793 174.431 93.4629 173.639C91.779 170.449 90.0925 167.307 88.207 164.23C87 162.156 87 162.156 87 160.156C86.34 160.156 85.68 160.156 85 160.156C84.4689 158.999 83.9378 157.841 83.3906 156.648C82.6773 155.109 81.9638 153.57 81.25 152.031C80.902 151.271 80.5539 150.51 80.1953 149.727C76.6567 142.052 76.6567 142.052 71.3125 135.594C69.5076 133.617 69.3518 131.76 69 129.156C68.34 129.156 67.68 129.156 67 129.156C66.5669 128.084 66.1337 127.011 65.6875 125.906C64.4292 122.96 62.9362 120.712 61 118.156C60.3561 116.916 59.7333 115.664 59.125 114.406C57.4059 110.856 55.4345 107.588 53.2461 104.309C52 102.156 52 102.156 50.6641 98.8828C48.6428 94.0383 45.5946 89.9443 42.584 85.6738C40.0073 81.934 38.2111 78.597 37 74.1562Z" fill="#55B381"/>
<path d="M225.098 18.3227C227.045 19.1744 228.928 19.6979 231 20.1548C231 20.8148 231 21.4748 231 22.1548C231.773 22.3133 232.547 22.4719 233.344 22.6352C243.2 24.8432 248.918 28.0725 256 35.1548C257.194 35.8867 258.404 36.5928 259.625 37.2798C265.601 40.8287 270.344 46.0541 275 51.1548C275 51.4848 275 51.8148 275 52.1548C271.188 52.3309 267.377 52.4362 263.562 52.5298C262.493 52.58 261.424 52.6303 260.322 52.6821C252.461 52.8263 247.985 51.2133 242 46.1548C236.613 41.7188 232.398 39.408 225.535 37.8032C222.437 37.0106 219.841 35.6066 217 34.1548C214.349 33.3696 211.701 32.7601 209 32.1548C209 31.4948 209 30.8348 209 30.1548C207.824 30.031 206.649 29.9073 205.438 29.7798C202.486 29.4616 199.56 29.0881 196.625 28.643C181.457 26.3775 167.109 26.9591 152 29.1548C150.561 29.3539 150.561 29.3539 149.094 29.5571C143.586 30.4721 138.953 32.373 133.938 34.7954C130.738 36.2758 127.495 37.4995 124.188 38.7173C119.615 40.4332 115.926 42.2898 112 45.1548C111.34 45.1548 110.68 45.1548 110 45.1548C109.67 46.1448 109.34 47.1348 109 48.1548C104.327 52.5881 100.227 52.5825 93.9414 52.5063C92.847 52.4728 91.7526 52.4393 90.625 52.4048C89.5074 52.3867 88.3898 52.3687 87.2383 52.3501C84.4913 52.3031 81.7461 52.2374 79 52.1548C81.8561 46.2297 85.719 42.0055 91 38.1548C92.32 38.1548 93.64 38.1548 95 38.1548C95.2307 37.5566 95.4615 36.9585 95.6992 36.3423C97.3436 33.5769 99.0102 32.7009 101.812 31.1548C104.724 29.5092 107.105 28.062 109.625 25.8423C113.03 23.4227 115.863 23.4352 120 23.1548C120 22.4948 120 21.8348 120 21.1548C122.906 19.8981 124.796 19.1548 128 19.1548C128 18.4948 128 17.8348 128 17.1548C129.727 16.6467 131.457 16.1486 133.188 15.6548C134.632 15.2371 134.632 15.2371 136.105 14.811C138.853 14.188 141.196 14.0317 144 14.1548C144 13.4948 144 12.8348 144 12.1548C169.535 5.7709 201.213 6.81587 225.098 18.3227Z" fill="#DAE1E2"/>
<path d="M308 110.156C308.66 110.156 309.32 110.156 310 110.156C310.483 112.176 310.961 114.197 311.438 116.219C311.704 117.344 311.971 118.469 312.246 119.629C313.523 125.604 314.131 131.352 314.168 137.461C314.172 138.138 314.176 138.815 314.181 139.512C314.191 141.685 314.191 143.858 314.188 146.031C314.187 146.772 314.186 147.513 314.186 148.276C314.145 166.608 312.834 183.297 304.875 200.148C304.009 202.134 303.418 204.062 302.875 206.156C302.586 207.146 302.298 208.136 302 209.156C301.01 209.651 301.01 209.651 300 210.156C299.588 210.981 299.175 211.806 298.75 212.656C294.179 221.799 287.611 229.646 281.251 237.589C280.117 239.009 278.999 240.441 277.883 241.875C271.926 249.092 263.71 254.925 256 260.156C255.34 260.156 254.68 260.156 254 260.156C253.536 261.084 253.536 261.084 253.062 262.031C251.176 265.805 250.521 266.511 246.5 267.969C242.922 269.33 239.671 270.835 236.375 272.781C232.312 275.135 228.594 276.237 224 277.156C224 277.816 224 278.476 224 279.156C222.419 279.521 220.835 279.873 219.25 280.219C218.368 280.416 217.487 280.613 216.578 280.816C214 281.156 214 281.156 210 280.156C212.97 274.711 212.97 274.711 216 269.156C216.66 269.156 217.32 269.156 218 269.156C218.248 268.455 218.495 267.754 218.75 267.031C222.312 258.839 222.312 258.839 226.039 257.332C228.004 256.842 230.002 256.489 232 256.156C232 255.496 232 254.836 232 254.156C232.773 253.793 233.547 253.429 234.344 253.055C242.032 249.344 248.7 245.533 254.688 239.406C257 237.156 257 237.156 259.688 236.094C262.1 235.384 262.1 235.384 263.062 233.406C263.527 232.293 263.527 232.293 264 231.156C266.591 226.956 269.314 223.454 273 220.156C273.66 220.156 274.32 220.156 275 220.156C275.289 219.249 275.577 218.341 275.875 217.406C278.256 210.528 278.256 210.528 281 209.156C282.331 206.19 283.534 203.205 284.701 200.172C285.39 198.467 286.189 196.807 287 195.156C287.99 194.826 288.98 194.496 290 194.156C290.103 192.981 290.206 191.805 290.312 190.594C290.623 187.05 291.815 184.287 293.249 181.052C294.527 177.825 295.136 174.502 295.688 171.094C295.82 170.302 295.952 169.509 296.089 168.693C297.418 159.475 297.055 150.193 296.538 140.916C296.238 131.381 298.684 125.937 304 118.156C305.416 115.522 306.704 112.852 308 110.156Z" fill="#DDE3E4"/>
<path d="M43.0001 110.156C43.6601 110.156 44.3201 110.156 45.0001 110.156C46.3321 111.992 46.3321 111.992 47.8126 114.531C48.2934 115.343 48.7743 116.155 49.2696 116.992C49.8407 118.036 50.4118 119.08 51.0001 120.156C51.4308 120.858 51.8615 121.559 52.3053 122.282C56.3322 129.332 56.5733 135.16 56.2501 143.156C56.1992 145.538 56.1524 147.919 56.1095 150.301C56.0844 151.46 56.0592 152.62 56.0333 153.815C55.9867 158.507 56.1977 163.163 56.5001 167.844C56.5481 168.597 56.5961 169.351 56.6456 170.127C56.7571 171.804 56.8774 173.48 57.0001 175.156C57.6601 175.156 58.3201 175.156 59.0001 175.156C59.2309 176.028 59.4616 176.899 59.6993 177.797C65.9554 200.645 77.6301 222.259 96.0626 237.656C97.032 238.481 98.0014 239.306 99.0001 240.156C99.0001 240.816 99.0001 241.476 99.0001 242.156C99.6601 242.342 100.32 242.528 101 242.719C103.903 244.11 105.446 245.409 107.75 247.594C111.795 251.299 115.719 252.873 121 254.156C121 254.816 121 255.476 121 256.156C121.615 256.315 122.23 256.473 122.863 256.637C129.519 258.558 129.519 258.558 132.063 261.719C133 264.156 133 264.156 133 266.156C133.99 266.486 134.98 266.816 136 267.156C137.098 269.047 137.098 269.047 138.063 271.406C138.567 272.619 138.567 272.619 139.082 273.855C139.385 274.615 139.688 275.374 140 276.156C140.413 277.167 140.825 278.178 141.25 279.219C141.498 279.858 141.745 280.498 142 281.156C135.081 280.717 130.18 279.18 124 276.156C122.894 275.664 121.788 275.171 120.649 274.664C119.486 274.146 118.323 273.628 117.125 273.094C116.035 272.608 114.944 272.122 113.82 271.621C111.28 270.302 109.922 269.191 108 267.156C105.682 266.121 103.348 265.121 101 264.156C100.01 263.496 99.0201 262.836 98.0001 262.156C98.0001 261.496 98.0001 260.836 98.0001 260.156C97.1687 259.768 97.1687 259.768 96.3204 259.371C87.9182 254.972 81.3581 248.783 75.1915 241.672C73.0734 239.174 73.0734 239.174 70.8868 237.086C69.0164 235.173 67.6503 233.304 66.2501 231.031C65.8221 230.348 65.3942 229.665 64.9532 228.961C64.0001 227.156 64.0001 227.156 64.0001 225.156C62.5151 224.661 62.5151 224.661 61.0001 224.156C60.3126 222.094 60.3126 222.094 60.0001 220.156C59.3401 220.156 58.6801 220.156 58.0001 220.156C53.8595 212.028 49.8803 203.879 46.7814 195.289C46.2261 193.773 45.6393 192.269 45.0314 190.773C39.9692 177.926 38.5039 164.925 38.6639 151.247C38.6876 149.091 38.6844 146.936 38.6778 144.779C38.7008 132.992 39.5633 121.491 43.0001 110.156Z" fill="#D5DDDE"/>
<path d="M307 81.1563C299.482 86.629 291.91 91.9275 284.049 96.8958C279.431 99.8321 275.035 103.005 270.641 106.262C268.006 108.152 265.316 109.883 262.562 111.594C257.28 114.89 252.368 118.55 247.434 122.336C245 124.156 245 124.156 243 125.156C243.66 125.816 244.32 126.476 245 127.156C240.25 131.156 240.25 131.156 238 131.156C237.67 132.146 237.34 133.136 237 134.156C233.888 136.131 231.024 137.789 227.562 139.031C224.396 140.421 221.962 142.342 219.234 144.449C209.69 151.741 209.69 151.741 204.811 154.308C200.043 156.935 200.043 156.935 197.104 161.322C196.704 163.915 196.573 166.4 196.535 169.024C196.486 169.976 196.437 170.928 196.386 171.91C196.238 174.95 196.148 177.989 196.062 181.031C195.939 184.027 195.804 187.023 195.668 190.018C195.58 191.974 195.496 193.931 195.418 195.888C195.072 204.066 194.158 212.056 193 220.156C192.783 221.916 192.571 223.676 192.367 225.438C192.283 226.153 192.2 226.868 192.113 227.606C191.995 228.621 191.995 228.621 191.875 229.656C191.789 230.395 191.702 231.134 191.613 231.895C191.408 233.648 191.204 235.402 191 237.156C190.67 237.156 190.34 237.156 190 237.156C189.67 224.286 189.34 211.416 189 198.156C188.795 202.008 188.59 205.86 188.379 209.828C188.178 213.555 187.976 217.281 187.773 221.008C187.633 223.6 187.494 226.191 187.357 228.783C187.16 232.507 186.957 236.23 186.754 239.953C186.693 241.114 186.633 242.274 186.571 243.47C186.511 244.551 186.451 245.632 186.389 246.745C186.338 247.696 186.287 248.646 186.234 249.625C186.022 251.917 185.573 253.936 185 256.156C184.866 257.498 184.768 258.844 184.703 260.191C184.663 260.971 184.623 261.752 184.582 262.556C184.543 263.388 184.505 264.221 184.465 265.078C184.422 265.938 184.379 266.798 184.335 267.684C184.199 270.425 184.068 273.166 183.938 275.906C183.846 277.767 183.754 279.628 183.662 281.488C183.437 286.044 183.217 290.6 183 295.156C182.67 295.156 182.34 295.156 182 295.156C182 247.636 182 200.116 182 151.156C183.98 150.166 183.98 150.166 186 149.156C186.433 148.703 186.866 148.249 187.312 147.781C190.668 144.55 195.121 142.624 199.207 140.449C200.356 139.837 201.504 139.225 202.688 138.594C203.784 138.015 204.881 137.436 206.012 136.84C208.936 135.281 208.936 135.281 211.148 133.527C213.075 132.101 214.658 131.477 216.938 130.781C219.974 129.717 221.04 129.115 223.375 126.719C226.514 123.655 229.364 122.684 233.43 121.203C236.679 119.88 239.433 118.102 242.309 116.109C244 115.156 244 115.156 247 115.156C247.33 114.166 247.66 113.176 248 112.156C250.836 110.367 250.836 110.367 254.375 108.531C255.538 107.92 256.7 107.309 257.898 106.68C261 105.156 261 105.156 264 104.156C264 103.496 264 102.836 264 102.156C265.458 101.427 266.917 100.698 268.375 99.9688C269.284 99.5138 270.193 99.0588 271.129 98.5899C272.989 97.6613 274.851 96.7365 276.715 95.8165C278.001 95.1804 278.001 95.1804 279.312 94.5313C280.092 94.1472 280.872 93.7631 281.676 93.3673C287.124 90.5289 292.221 87.1038 297.379 83.7774C303.502 79.9904 303.502 79.9904 307 81.1563Z" fill="#CFE97B"/>
<path d="M43 63.1562C46.63 63.1562 50.26 63.1562 54 63.1562C52.515 65.1363 52.515 65.1363 51 67.1562C52.1756 67.4966 52.1756 67.4966 53.375 67.8438C59.7388 70.1479 65.6375 73.3569 71.5 76.7188C74.4628 78.3882 77.3851 79.7593 80.5625 80.9688C85.6444 82.9251 90.4583 85.3316 95.3069 87.7942C104.452 92.426 113.732 96.7766 123 101.156C123 100.166 123 99.1762 123 98.1562C129.146 99.7646 134.664 101.83 140.297 104.762C148.303 108.892 156.38 112.526 165 115.156C165 115.816 165 116.476 165 117.156C166.725 117.691 168.455 118.208 170.188 118.719C171.15 119.009 172.113 119.299 173.105 119.598C178.216 120.584 182.366 118.765 187.188 117.094C192.779 115.156 192.779 115.156 195 115.156C195 114.496 195 113.836 195 113.156C196.052 112.764 197.104 112.373 198.188 111.969C198.922 111.69 199.657 111.412 200.414 111.125C202.236 110.442 204.065 109.777 205.898 109.125C212.915 106.561 219.403 103.516 225.887 99.8352C229.247 97.9558 232.167 96.65 236 96.1562C234.699 100.058 233.354 100.277 229.75 102.094C226.654 103.703 224.024 105.136 221.312 107.344C218.107 109.856 214.85 110.851 211 112.156C221.649 109.699 231.407 104.463 240.773 98.9492C243.981 97.1669 246.377 96.5097 250 96.1562C250.66 97.1463 251.32 98.1363 252 99.1562C245.375 103.156 245.375 103.156 242 103.156C242 103.816 242 104.476 242 105.156C230 111.156 230 111.156 226.77 112.762C221.853 115.12 221.853 115.12 217.727 118.578C215.404 120.701 212.949 121.661 210.062 122.906C204.23 125.508 198.807 128.505 193.363 131.836C191 133.156 191 133.156 189 133.156C188.67 134.146 188.34 135.136 188 136.156C183.973 138.818 180.132 140.175 175.312 140.094C171.93 139.136 169.062 137.874 166 136.156C166 135.496 166 134.836 166 134.156C165.131 133.896 164.262 133.635 163.367 133.367C159.978 132.148 157.198 130.648 154.125 128.781C150.712 126.742 147.331 124.758 143.75 123.031C140.488 121.447 137.481 119.615 134.43 117.66C129.05 114.331 123.505 111.272 118 108.156C118 107.496 118 106.836 118 106.156C116.928 105.909 115.855 105.661 114.75 105.406C110.774 104.081 109.826 103.066 107 100.156C101.743 96.7657 101.743 96.7657 95.9062 94.6992C93.5335 94.0234 92.6986 92.9191 91 91.1562C89.4269 90.1873 87.8175 89.2762 86.1875 88.4062C85.2194 87.8893 84.2513 87.3724 83.2539 86.8398C78.5858 84.4245 73.882 82.0859 69.1641 79.7695C61.3024 75.7611 61.3024 75.7611 60 73.1562C58.4056 72.4439 56.8066 71.7403 55.1875 71.0859C51.0273 69.3179 47.0269 67.2061 43 65.1562C43 64.4962 43 63.8363 43 63.1562Z" fill="#54A07A"/>
<path d="M49 81.1562C52.3839 81.7855 54.6259 83.0724 57.4375 85.0312C63.3327 89.1118 69.4737 92.5123 75.8125 95.8438C76.6008 96.2595 77.389 96.6752 78.2012 97.1035C80.1335 98.1224 82.0664 99.1399 84 100.156C84 100.816 84 101.476 84 102.156C85.4541 102.466 85.4541 102.466 86.9375 102.781C91.0867 103.95 94.1544 106.171 97.6484 108.633C100.7 110.61 103.877 111.962 107.25 113.297C109 114.156 109 114.156 110 116.156C112.31 117.21 114.643 118.213 117 119.156C117 119.816 117 120.476 117 121.156C118.176 121.497 118.176 121.497 119.375 121.844C124.123 123.563 128.521 125.837 133 128.156C133 128.816 133 129.476 133 130.156C134.98 130.816 136.96 131.476 139 132.156C139 132.816 139 133.476 139 134.156C140.288 134.555 140.288 134.555 141.602 134.961C145.029 136.166 148.142 137.629 151.375 139.281C152.435 139.82 153.494 140.359 154.586 140.914C155.383 141.324 156.179 141.734 157 142.156C157 142.816 157 143.476 157 144.156C157.603 144.326 158.207 144.497 158.828 144.672C159.627 144.914 160.427 145.157 161.25 145.406C162.039 145.638 162.828 145.87 163.641 146.109C166.542 147.397 167.992 148.692 170 151.156C170.492 153.929 170.492 153.929 170.481 157.18C170.487 158.414 170.492 159.648 170.498 160.919C170.484 162.284 170.469 163.648 170.454 165.013C170.453 166.452 170.454 167.891 170.456 169.33C170.457 173.234 170.433 177.139 170.406 181.043C170.381 185.125 170.378 189.206 170.373 193.287C170.361 201.015 170.328 208.743 170.288 216.47C170.243 225.268 170.221 234.066 170.201 242.864C170.159 260.962 170.089 279.059 170 297.156C169.67 297.156 169.34 297.156 169 297.156C168.952 296.254 168.904 295.351 168.855 294.421C168.401 285.874 167.945 277.328 167.487 268.781C167.252 264.388 167.017 259.995 166.784 255.602C166.559 251.355 166.332 247.108 166.104 242.861C166.017 241.249 165.931 239.636 165.847 238.024C165.391 229.385 164.883 220.765 164 212.156C163.505 215.126 163.505 215.126 163 218.156C162.34 218.156 161.68 218.156 161 218.156C159.847 214.697 159.597 211.384 159.316 207.777C159.192 206.283 159.068 204.789 158.943 203.295C158.753 200.954 158.564 198.613 158.378 196.272C157.753 188.483 157.129 180.797 155.422 173.153C154.665 169.571 154.548 165.954 154.344 162.309C154.174 161.243 154.174 161.243 154 160.156C153.34 159.826 152.68 159.496 152 159.156C152 158.496 152 157.836 152 157.156C151.282 156.887 150.564 156.617 149.824 156.34C146.994 155.154 144.449 153.786 141.812 152.219C140.953 151.715 140.093 151.211 139.207 150.691C137 149.156 137 149.156 135 146.156C133.411 145.21 131.816 144.272 130.191 143.387C113.643 134.095 113.643 134.095 108.652 128.699C105.778 126.015 102.172 124.53 98.6914 122.754C95.9796 121.144 94.1642 119.428 92 117.156C90.7732 116.209 89.5245 115.289 88.25 114.406C87.1775 113.664 86.105 112.921 85 112.156C85.66 111.826 86.32 111.496 87 111.156C88.5938 111.941 88.5938 111.941 90.5 113.219C91.2141 113.684 91.9283 114.149 92.6641 114.629C93.4349 115.133 94.2058 115.637 95 116.156C101.495 120.208 108.101 123.839 115 127.156C115 127.816 115 128.476 115 129.156C117.31 129.816 119.62 130.476 122 131.156C121.532 130.854 121.064 130.553 120.582 130.242C105.131 120.27 105.131 120.27 97.9141 115.422C95.2525 113.662 92.5421 111.985 89.832 110.301C85.8287 107.8 81.9882 105.16 78.25 102.281C75.407 100.124 72.5301 98.2484 69.4375 96.4688C64.7064 93.6997 60.2941 90.5781 55.875 87.3438C55.1988 86.8511 54.5226 86.3584 53.8259 85.8508C52.1967 84.6466 50.5954 83.4049 49 82.1562C49 81.8262 49 81.4963 49 81.1562Z" fill="#C2E473"/>
<path d="M56 64.158C64.6586 63.9949 73.3167 63.8709 81.9766 63.7953C85.9989 63.7589 90.0202 63.7097 94.042 63.6299C97.9325 63.5531 101.822 63.5118 105.713 63.4938C107.188 63.481 108.663 63.456 110.138 63.4178C120.503 63.1607 127.514 64.9861 136 71.158C136.915 71.8064 137.83 72.4548 138.773 73.1228C139.968 73.9755 139.968 73.9755 141.188 74.8455C148.773 80.257 157.263 83.0877 166 86.158C166 86.818 166 87.478 166 88.158C171.28 89.478 176.56 90.798 182 92.158C182 92.818 182 93.478 182 94.158C188.93 94.653 188.93 94.653 196 95.158C194.763 94.5392 193.525 93.9205 192.25 93.283C190.833 92.5746 189.417 91.8663 188 91.158C187.002 90.721 187.002 90.721 185.984 90.2751C183.558 88.9093 181.954 87.1341 180 85.158C178.435 84.0883 176.851 83.0475 175.25 82.033C170.413 78.7392 167.137 74.9924 163.691 70.2947C162.005 67.9387 162.005 67.9387 159 66.158C159 65.498 159 64.838 159 64.158C205.2 64.158 251.4 64.158 299 64.158C299 64.488 299 64.818 299 65.158C298.125 65.1922 298.125 65.1922 297.232 65.2271C291.131 65.4665 285.031 65.7107 278.932 65.9575C276.658 66.0489 274.385 66.1391 272.111 66.228C268.834 66.3564 265.558 66.4892 262.281 66.6228C261.273 66.6614 260.264 66.7 259.225 66.7397C253.762 66.967 248.414 67.3914 243 68.158C244.207 69.1789 244.207 69.1789 245.438 70.2205C248.489 73.7189 249 75.5525 249 80.158C247.412 83.7318 246.284 84.9688 243 87.158C238.788 87.6259 236.714 87.6236 233.125 85.283C230.374 82.5317 230.051 81.7056 229.688 77.783C230.052 73.5585 230.871 72.8131 234 70.158C234.33 69.168 234.66 68.178 235 67.158C230.327 67.4243 225.653 67.6908 220.98 67.9575C219.399 68.0477 217.817 68.1379 216.236 68.228C205.157 68.8594 194.078 69.5026 183 70.158C182.887 75.241 182.887 75.241 184 80.158C185.176 80.622 185.176 80.622 186.375 81.0955C189.418 82.3271 190.354 83.3598 192 86.158C192.088 86.7973 192.175 87.4367 192.266 88.0955C193.347 91.1322 195.218 91.7732 198 93.283C202.908 95.974 202.908 95.974 204 98.158C195.687 98.3996 187.872 97.7782 179.688 96.3455C178.656 96.1798 177.624 96.0142 176.561 95.8435C170.922 94.8862 166.164 93.5955 161 91.158C159.405 90.6684 157.801 90.2063 156.188 89.783C151.629 88.4708 147.662 86.5628 143.473 84.365C139.757 82.5512 135.949 81.3682 132 80.158C136.29 83.128 140.58 86.098 145 89.158C142 90.158 142 90.158 139.031 88.9705C120.792 79.6086 120.792 79.6086 115.422 74.7218C109.559 69.6371 104.198 69.0093 96.625 68.4783C95.4599 68.3758 94.2949 68.2733 93.0945 68.1677C89.3979 67.8482 85.6996 67.5651 82 67.283C79.4829 67.0718 76.9659 66.8583 74.4492 66.6423C68.3015 66.12 62.152 65.6274 56 65.158C56 64.828 56 64.498 56 64.158Z" fill="#D2EB7E"/>
<path d="M308 89.1562C308.495 90.1463 308.495 90.1463 309 91.1562C307.855 92.7031 307.855 92.7031 306.688 94.2812C304.427 97.4391 302.678 100.648 301 104.156C299.438 107.031 299.438 107.031 298 109.156C297.34 109.156 296.68 109.156 296 109.156C296 110.476 296 111.796 296 113.156C295.34 113.156 294.68 113.156 294 113.156C293.711 113.878 293.423 114.6 293.125 115.344C292.568 116.736 292.568 116.736 292 118.156C291.505 119.518 291.505 119.518 291 120.906C290 123.156 290 123.156 288 124.156C287.269 125.819 286.543 127.484 285.863 129.168C284.495 132.318 282.748 135.203 281 138.156C280.34 138.156 279.68 138.156 279 138.156C278.897 139.043 278.794 139.93 278.688 140.844C276.382 145.369 273.665 146.001 269.09 147.871C262.106 150.776 255.877 154.422 250 159.156C246.683 160.889 243.804 162.156 240 162.156C239.763 162.749 239.526 163.342 239.281 163.953C237.72 166.637 236.1 167.735 233.5 169.406C232.706 169.927 231.912 170.448 231.094 170.984C229 172.156 229 172.156 227 172.156C226.505 174.136 226.505 174.136 226 176.156C225.34 176.156 224.68 176.156 224 176.156C223.773 176.734 223.546 177.311 223.312 177.906C222 180.156 222 180.156 219.625 182.031C216.676 184.419 214.974 186.939 213 190.156C213.784 189.661 214.567 189.166 215.375 188.656C218 187.156 218 187.156 220 187.156C220 186.496 220 185.836 220 185.156C233.633 179.785 233.633 179.785 240 178.156C240 177.496 240 176.836 240 176.156C246.154 174.333 251.596 173.92 258 174.156C257.158 178.171 255.276 180.743 253 184.156C251.962 186.473 250.958 188.805 250 191.156C249.023 193.355 248.315 194.853 246.586 196.519C243.707 199.491 241.982 203.239 240 206.844C239.562 207.622 239.123 208.4 238.672 209.201C236.588 212.963 234.77 216.603 233.375 220.676C232.694 222.399 232.694 222.399 232 224.156C231.01 224.486 230.02 224.816 229 225.156C228.38 227.222 227.761 229.288 227.145 231.355C225.472 235.449 222.921 238.839 220.349 242.398C217.396 246.506 215.076 250.554 213 255.156C212.34 255.156 211.68 255.156 211 255.156C210.925 255.725 210.85 256.293 210.773 256.879C209.837 262.377 208.342 265.395 204.516 269.406C202.445 271.797 201.261 274.385 199.941 277.238C199 279.156 199 279.156 196.812 282.406C195.232 284.804 194.43 286.363 194 289.156C193.34 289.156 192.68 289.156 192 289.156C192.408 287.82 192.827 286.488 193.25 285.156C193.482 284.414 193.714 283.671 193.953 282.906C196.434 276.39 199.965 270.295 203.25 264.156C206.758 257.574 210.15 250.942 213.437 244.246C214.831 241.418 216.247 238.785 218 236.156C218.66 236.156 219.32 236.156 220 236.156C220.103 235.29 220.206 234.424 220.312 233.531C221.044 229.938 222.106 227.289 224 224.156C224.99 223.826 225.98 223.496 227 223.156C227.103 222.455 227.206 221.754 227.312 221.031C228.104 217.721 229.407 215.165 231 212.156C231.732 210.7 232.461 209.241 233.188 207.781C233.792 206.573 234.396 205.365 235 204.156C235.66 204.156 236.32 204.156 237 204.156C237.182 203.217 237.182 203.217 237.367 202.258C237.535 201.441 237.702 200.623 237.875 199.781C238.037 198.969 238.2 198.157 238.367 197.32C239 195.156 239 195.156 241 193.156C241 192.166 241 191.176 241 190.156C234.07 189.661 234.07 189.661 227 189.156C227.66 188.496 228.32 187.836 229 187.156C225.042 187.636 222.231 189.069 218.832 191.105C214.821 193.406 210.549 195.247 206 196.156C209.955 187.916 214.546 181.611 221 175.156C222.297 173.682 223.588 172.202 224.875 170.719C228.34 166.794 231.87 163.377 236 160.156C236.66 160.156 237.32 160.156 238 160.156C238.227 159.574 238.454 158.991 238.688 158.391C240.36 155.544 242.28 154.257 245 152.406C245.887 151.793 246.774 151.179 247.688 150.547C250 149.156 250 149.156 252 149.156C252.33 148.166 252.66 147.176 253 146.156C256.062 144.969 256.062 144.969 259 144.156C259 143.496 259 142.836 259 142.156C257.02 142.486 255.04 142.816 253 143.156C253 143.816 253 144.476 253 145.156C251.4 145.997 249.795 146.829 248.188 147.656C247.294 148.12 246.401 148.584 245.48 149.062C243 150.156 243 150.156 240 150.156C248.554 143.321 256.824 137.305 267 133.156C269.337 132.165 271.669 131.162 274 130.156C274.638 129.922 275.276 129.687 275.934 129.445C278.933 127.574 280.32 125.1 282.25 122.156C285.081 117.904 287.982 113.843 291.25 109.906C294.778 105.602 297.505 101.123 300 96.1562C300.66 96.1562 301.32 96.1562 302 96.1562C302.248 95.5581 302.495 94.96 302.75 94.3438C304.164 91.8698 305.651 90.7225 308 89.1562Z" fill="#60A67E"/>
<path d="M125 161.156C130.817 166.974 132.064 177.787 134.07 185.578C134.672 187.894 135.318 190.199 136.015 192.488C137.223 196.99 137.938 201.489 138.625 206.094C138.759 206.968 138.893 207.843 139.031 208.744C139.358 210.881 139.679 213.018 140 215.156C140.33 212.846 140.66 210.536 141 208.156C141.66 208.156 142.32 208.156 143 208.156C143.33 207.496 143.66 206.836 144 206.156C144.707 212.82 145.108 219.454 145.125 226.156C145.127 226.835 145.129 227.514 145.132 228.213C145.109 232.426 144.74 236.485 144.187 240.656C143.699 245.705 144.575 248.028 147.594 252.012C149.91 255.544 150.896 259.501 152.105 263.52C152.935 266.339 152.935 266.339 155 269.156C155.394 271.48 155.735 273.814 156 276.156C156.66 276.156 157.32 276.156 158 276.156C158.988 278.193 159.965 280.236 160.937 282.281C161.483 283.418 162.028 284.555 162.59 285.727C163.91 288.938 164.588 291.723 165 295.156C162.414 292.801 160.759 290.295 159 287.281C158.505 286.438 158.01 285.595 157.5 284.727C157.005 283.878 156.51 283.03 156 282.156C155.504 281.336 155.007 280.517 154.496 279.672C152.951 277.074 151.499 274.441 150.062 271.781C148.298 268.521 146.507 265.288 144.625 262.094C143 259.156 143 259.156 143 257.156C142.34 257.156 141.68 257.156 141 257.156C140.553 256.301 140.553 256.301 140.098 255.428C138.755 252.857 137.408 250.288 136.062 247.719C135.594 246.821 135.125 245.923 134.642 244.998C134.194 244.144 133.747 243.29 133.285 242.41C132.664 241.224 132.664 241.224 132.031 240.014C131.136 238.201 131.136 238.201 130 237.156C129.936 234.217 129.934 231.301 129.972 228.363C129.985 226.516 129.998 224.669 130.01 222.822C130.034 219.915 130.062 217.009 130.096 214.102C130.261 198.96 129.071 185.083 125.586 170.312C125.005 167.182 124.895 164.332 125 161.156Z" fill="#2D8D72"/>
<path d="M56 64.158C64.6586 63.9949 73.3167 63.8709 81.9766 63.7953C85.9989 63.7589 90.0202 63.7097 94.042 63.6299C97.9325 63.5531 101.822 63.5118 105.713 63.4938C107.188 63.481 108.663 63.456 110.138 63.4178C120.503 63.1607 127.514 64.9861 136 71.158C136.915 71.8064 137.83 72.4548 138.773 73.1228C139.968 73.9755 139.968 73.9755 141.188 74.8455C148.773 80.257 157.263 83.0877 166 86.158C166 86.818 166 87.478 166 88.158C171.28 89.478 176.56 90.798 182 92.158C182 92.818 182 93.478 182 94.158C188.93 94.653 188.93 94.653 196 95.158C194.763 94.5598 193.525 93.9617 192.25 93.3455C189.257 91.8541 186.581 90.3091 184 88.158C184.99 88.158 185.98 88.158 187 88.158C186.175 87.3742 185.35 86.5905 184.5 85.783C182 83.158 182 83.158 182 81.158C183.625 80.3455 183.625 80.3455 186 80.158C190.353 83.06 190.353 83.06 192 85.158C192.12 85.9765 192.24 86.7951 192.363 87.6384C192.773 90.3526 192.773 90.3526 195.25 91.8884C196.611 92.6097 196.611 92.6097 198 93.3455C202.917 95.9927 202.917 95.9927 204 98.158C195.687 98.3996 187.872 97.7782 179.688 96.3455C178.656 96.1798 177.624 96.0142 176.561 95.8435C170.922 94.8862 166.164 93.5955 161 91.158C159.405 90.6684 157.801 90.2063 156.188 89.783C151.629 88.4708 147.662 86.5628 143.473 84.365C139.757 82.5512 135.949 81.3682 132 80.158C136.29 83.128 140.58 86.098 145 89.158C142 90.158 142 90.158 139.031 88.9705C120.792 79.6086 120.792 79.6086 115.422 74.7218C109.559 69.6371 104.198 69.0093 96.625 68.4783C95.4599 68.3758 94.2949 68.2733 93.0945 68.1677C89.3979 67.8482 85.6996 67.5651 82 67.283C79.4829 67.0718 76.9659 66.8583 74.4492 66.6423C68.3015 66.12 62.152 65.6274 56 65.158C56 64.828 56 64.498 56 64.158Z" fill="#C6E673"/>
<path d="M308 89.1562C308.495 90.1463 308.495 90.1463 309 91.1562C307.855 92.7031 307.855 92.7031 306.688 94.2812C304.427 97.4391 302.678 100.648 301 104.156C299.438 107.031 299.438 107.031 298 109.156C297.34 109.156 296.68 109.156 296 109.156C296 110.476 296 111.796 296 113.156C295.34 113.156 294.68 113.156 294 113.156C293.711 113.878 293.423 114.6 293.125 115.344C292.568 116.736 292.568 116.736 292 118.156C291.505 119.518 291.505 119.518 291 120.906C290 123.156 290 123.156 288 124.156C287.269 125.819 286.543 127.484 285.863 129.168C284.495 132.318 282.748 135.203 281 138.156C280.34 138.156 279.68 138.156 279 138.156C278.897 139.043 278.794 139.93 278.688 140.844C276.382 145.369 273.665 146.001 269.09 147.871C262.106 150.776 255.877 154.422 250 159.156C246.683 160.889 243.804 162.156 240 162.156C239.763 162.749 239.526 163.342 239.281 163.953C237.72 166.637 236.1 167.735 233.5 169.406C232.309 170.187 232.309 170.187 231.094 170.984C229 172.156 229 172.156 227 172.156C227 172.816 227 173.476 227 174.156C224.625 175.844 224.625 175.844 222 177.156C221.34 176.826 220.68 176.496 220 176.156C225.019 170.398 229.951 164.848 236 160.156C236.66 160.156 237.32 160.156 238 160.156C238.227 159.574 238.454 158.991 238.688 158.391C240.36 155.544 242.28 154.257 245 152.406C245.887 151.793 246.774 151.179 247.688 150.547C250 149.156 250 149.156 252 149.156C252.33 148.166 252.66 147.176 253 146.156C256.062 144.969 256.062 144.969 259 144.156C259 143.496 259 142.836 259 142.156C256.03 142.651 256.03 142.651 253 143.156C253 143.816 253 144.476 253 145.156C251.4 145.997 249.795 146.829 248.188 147.656C247.294 148.12 246.401 148.584 245.48 149.062C243 150.156 243 150.156 240 150.156C248.554 143.321 256.824 137.305 267 133.156C269.337 132.165 271.669 131.162 274 130.156C274.638 129.922 275.276 129.687 275.934 129.445C278.933 127.574 280.32 125.1 282.25 122.156C285.081 117.904 287.982 113.843 291.25 109.906C294.778 105.602 297.505 101.123 300 96.1562C300.66 96.1562 301.32 96.1562 302 96.1562C302.248 95.5581 302.495 94.96 302.75 94.3438C304.164 91.8698 305.651 90.7225 308 89.1562Z" fill="#72AE81"/>
<path d="M51 96.1562C57.4797 104.694 63.3256 113.535 68.7554 122.765C71.4378 127.299 74.3604 131.592 77.4297 135.875C80.7 140.626 83.8004 145.464 85 151.156C85.66 151.156 86.32 151.156 87 151.156C88.5156 153.211 88.5156 153.211 90.25 156.031C90.8713 157.037 91.4927 158.042 92.1328 159.078C93.0571 160.602 93.0571 160.602 94 162.156C94.5337 163.028 95.0673 163.899 95.6172 164.797C98.5296 169.596 101.268 174.443 103.824 179.441C104.969 181.481 104.969 181.481 108 182.156C108.33 181.496 108.66 180.836 109 180.156C109.66 180.156 110.32 180.156 111 180.156C111.103 179.517 111.206 178.877 111.312 178.219C111.539 177.538 111.766 176.858 112 176.156C112.99 175.826 113.98 175.496 115 175.156C115 176.806 115 178.456 115 180.156C115.474 178.939 115.949 177.722 116.438 176.469C116.704 175.784 116.971 175.1 117.246 174.395C118.908 169.459 119.261 164.514 119.562 159.344C119.627 158.304 119.627 158.304 119.693 157.244C119.799 155.548 119.9 153.852 120 152.156C123 153.156 123 153.156 124.25 154.969C125.116 157.496 124.885 158.678 124 161.156C123.01 158.681 123.01 158.681 122 156.156C121.962 157.192 121.962 157.192 121.924 158.248C121.807 161.405 121.685 164.562 121.562 167.719C121.523 168.805 121.484 169.891 121.443 171.01C120.957 183.318 118.303 193.606 114 205.156C113.01 205.156 112.02 205.156 111 205.156C110.674 204.397 110.348 203.638 110.012 202.855C109.575 201.862 109.138 200.868 108.688 199.844C108.258 198.858 107.829 197.871 107.387 196.855C106.108 194.366 104.958 193.07 103 191.156C102.256 188.846 101.578 186.513 101 184.156C100.34 184.156 99.68 184.156 99 184.156C98.7431 183.667 98.4861 183.179 98.2214 182.675C97.0449 180.439 95.8662 178.204 94.6875 175.969C94.2834 175.2 93.8793 174.431 93.4629 173.639C91.779 170.449 90.0925 167.307 88.207 164.23C87 162.156 87 162.156 87 160.156C86.34 160.156 85.68 160.156 85 160.156C84.4689 158.999 83.9378 157.841 83.3906 156.648C82.6773 155.109 81.9638 153.57 81.25 152.031C80.902 151.271 80.5539 150.51 80.1953 149.727C76.6567 142.052 76.6567 142.052 71.3125 135.594C69.5076 133.617 69.3518 131.76 69 129.156C68.34 129.156 67.68 129.156 67 129.156C66.3503 127.548 66.3503 127.548 65.6875 125.906C64.4292 122.96 62.9362 120.712 61 118.156C59.9971 116.224 59.0575 114.266 58.1133 112.305C56.9739 110.106 55.6829 108.093 54.3125 106.031C52.2142 102.774 51.2941 100.077 51 96.1562Z" fill="#2A8A6F"/>
<path d="M246 70.1581C248.506 73.3278 249 75.2066 249 79.2206C247.696 83.052 246.254 84.7529 243 87.1581C238.697 87.8497 236.791 87.6737 233.125 85.2831C230.374 82.5319 230.051 81.7058 229.688 77.7831C230 74.1581 230 74.1581 231.812 71.7831C236.248 68.4883 240.855 68.609 246 70.1581Z" fill="#E9F780"/>
<path d="M233 218.156C233.495 219.146 233.495 219.146 234 220.156C232.688 222.781 232.688 222.781 231 225.156C230.34 225.156 229.68 225.156 229 225.156C228.691 226.373 228.381 227.59 228.062 228.844C226.376 233.984 223.481 238.062 220.35 242.398C217.396 246.505 215.076 250.553 213 255.156C212.34 255.156 211.68 255.156 211 255.156C210.925 255.725 210.85 256.293 210.773 256.879C209.837 262.377 208.342 265.395 204.516 269.406C202.445 271.797 201.261 274.385 199.941 277.238C199 279.156 199 279.156 196.812 282.406C195.232 284.804 194.43 286.363 194 289.156C193.34 289.156 192.68 289.156 192 289.156C192.408 287.82 192.827 286.488 193.25 285.156C193.482 284.414 193.714 283.671 193.953 282.906C196.434 276.39 199.965 270.295 203.25 264.156C206.758 257.574 210.15 250.942 213.437 244.246C214.831 241.418 216.247 238.785 218 236.156C218.66 236.156 219.32 236.156 220 236.156C220 235.496 220 234.836 220 234.156C220.784 233.95 221.567 233.744 222.375 233.531C225.269 232.386 225.269 232.386 226.062 229.344C226.372 228.292 226.681 227.24 227 226.156C229 223.469 229 223.469 231 221.156C231.66 220.166 232.32 219.176 233 218.156Z" fill="#509678"/>
<path d="M183 150.156C183.99 150.486 184.98 150.816 186 151.156C185.34 151.816 184.68 152.476 184 153.156C183.782 156.228 183.689 159.213 183.681 162.288C183.671 163.234 183.661 164.18 183.651 165.155C183.62 168.294 183.603 171.432 183.586 174.57C183.567 176.742 183.548 178.914 183.527 181.086C183.476 186.81 183.436 192.535 183.399 198.259C183.359 204.097 183.308 209.935 183.258 215.773C183.161 227.234 183.077 238.695 183 250.156C183.66 250.156 184.32 250.156 185 250.156C185 243.556 185 236.956 185 230.156C185.99 229.661 185.99 229.661 187 229.156C186.861 232.907 186.713 236.656 186.563 240.406C186.523 241.47 186.484 242.533 186.443 243.629C186.401 244.654 186.36 245.679 186.316 246.734C186.28 247.677 186.243 248.62 186.205 249.591C186 252.156 186 252.156 185.506 254.064C185.001 256.152 184.807 258.048 184.703 260.19C184.663 260.971 184.623 261.751 184.582 262.556C184.543 263.388 184.505 264.22 184.465 265.078C184.422 265.938 184.379 266.798 184.335 267.684C184.199 270.425 184.068 273.165 183.938 275.906C183.846 277.767 183.754 279.628 183.662 281.488C183.437 286.044 183.217 290.6 183 295.156C182.67 295.156 182.34 295.156 182 295.156C181.977 276.398 181.959 257.64 181.948 238.882C181.943 230.173 181.936 221.464 181.925 212.755C181.915 205.167 181.908 197.579 181.906 189.991C181.905 185.971 181.902 181.95 181.894 177.93C181.888 174.151 181.885 170.371 181.887 166.591C181.887 165.2 181.885 163.809 181.881 162.418C181.876 160.526 181.878 158.635 181.88 156.743C181.879 155.682 181.878 154.621 181.877 153.528C182 151.156 182 151.156 183 150.156Z" fill="#B6D973"/>
<path d="M187.562 81.405C190 83.155 190 83.155 192 86.155C192.103 86.8124 192.206 87.4698 192.312 88.1471C193.343 91.156 195.262 91.794 198 93.28C202.908 95.971 202.908 95.971 204 98.155C193.714 98.6995 184.061 97.033 174 95.155C175.32 94.495 176.64 93.835 178 93.155C176.68 92.825 175.36 92.495 174 92.155C174 91.495 174 90.835 174 90.155C176.64 90.815 179.28 91.475 182 92.155C182 92.815 182 93.475 182 94.155C188.93 94.65 188.93 94.65 196 95.155C194.763 94.5568 193.525 93.9587 192.25 93.3425C189.257 91.8511 186.581 90.3061 184 88.155C184.99 88.155 185.98 88.155 187 88.155C186.175 87.3712 185.35 86.5875 184.5 85.78C182 83.155 182 83.155 182 81.155C185 80.155 185 80.155 187.562 81.405Z" fill="#B6D47B"/>
<path d="M43 63.1562C46.63 63.1562 50.26 63.1562 54 63.1562C52.515 65.1363 52.515 65.1363 51 67.1562C52.1756 67.4966 52.1756 67.4966 53.375 67.8438C60.628 70.4698 67.341 74.2628 73.9922 78.1406C75.9575 79.2423 75.9575 79.2423 78.1328 79.6094C80 80.1562 80 80.1562 82 83.1562C81.505 84.6413 81.505 84.6413 81 86.1562C78.6033 84.887 76.2076 83.6159 73.8125 82.3438C73.139 81.9873 72.4654 81.6309 71.7715 81.2637C61.2589 75.6741 61.2589 75.6741 60 73.1562C58.4056 72.4439 56.8066 71.7403 55.1875 71.0859C51.0273 69.3179 47.0269 67.2061 43 65.1562C43 64.4962 43 63.8363 43 63.1562Z" fill="#4B996E"/>
<path d="M49 81.1562C52.3839 81.7855 54.6259 83.0724 57.4375 85.0312C63.3327 89.1118 69.4737 92.5123 75.8125 95.8438C76.6008 96.2595 77.389 96.6752 78.2012 97.1035C80.1335 98.1224 82.0664 99.1399 84 100.156C83.01 100.651 83.01 100.651 82 101.156C81.505 102.641 81.505 102.641 81 104.156C80.3593 103.697 79.7187 103.238 79.0586 102.766C78.1936 102.152 77.3287 101.538 76.4375 100.906C75.5906 100.303 74.7437 99.6997 73.8711 99.0781C71.2658 97.3342 68.598 95.8065 65.8669 94.272C62.4426 92.2255 59.2652 89.8417 56.0625 87.4688C55.0367 86.7214 55.0367 86.7214 53.9902 85.959C52.3061 84.719 50.6501 83.4411 49 82.1562C49 81.8262 49 81.4963 49 81.1562Z" fill="#A2D16C"/>
<path d="M188 203.156C188.33 203.156 188.66 203.156 189 203.156C189 218.666 189 234.176 189 250.156C189.66 250.156 190.32 250.156 191 250.156C190.67 251.146 190.34 252.136 190 253.156C189.34 252.826 188.68 252.496 188 252.156C187.375 249.594 187.375 249.594 187 247.156C186.67 247.156 186.34 247.156 186 247.156C185.816 237.725 186.394 228.374 187 218.969C187.097 217.429 187.193 215.889 187.289 214.35C187.523 210.618 187.76 206.887 188 203.156Z" fill="#7EC784"/>
<path d="M223 80.1554C224 81.1554 224 81.1554 224.098 83.2218C224.065 85.533 224.033 87.8442 224 90.1554C221.03 90.1554 218.06 90.1554 215 90.1554C213.522 87.1987 213.94 84.4131 214 81.1554C217.07 80.2456 219.8 79.9824 223 80.1554Z" fill="#ECF87C"/>
<path d="M209 252.156C210.701 257.168 208.896 261.409 207 266.156C205.062 268.781 205.062 268.781 203 271.156C201.936 273.131 200.977 275.143 200.012 277.168C199 279.156 199 279.156 196.812 282.406C195.232 284.804 194.43 286.363 194 289.156C193.34 289.156 192.68 289.156 192 289.156C192.408 287.82 192.827 286.488 193.25 285.156C193.482 284.414 193.714 283.671 193.953 282.906C196.843 275.315 201.07 268.215 204.908 261.072C205.293 260.351 205.678 259.63 206.074 258.887C206.421 258.241 206.767 257.596 207.124 256.93C208.129 254.997 208.129 254.997 209 252.156Z" fill="#50A47D"/>
<path d="M233 99.1562C233.99 99.4863 234.98 99.8162 236 100.156C238.143 99.7669 238.143 99.7669 240 99.1562C237.788 101.601 235.707 102.959 232.727 104.348C231.489 104.929 231.489 104.929 230.227 105.521C229.368 105.917 228.51 106.312 227.625 106.719C226.349 107.317 226.349 107.317 225.047 107.928C222.705 109.02 220.355 110.092 218 111.156C217.038 111.598 216.077 112.041 215.086 112.496C213 113.156 213 113.156 210 112.156C212.398 110.649 214.666 109.283 217.32 108.277C220.358 107.007 222.933 105.394 225.688 103.594C230.865 100.224 230.865 100.224 233 99.1562Z" fill="#81BE85"/>
<path d="M281 82.156C280.169 82.6265 279.337 83.097 278.48 83.5818C277.394 84.2044 276.307 84.827 275.188 85.4685C274.109 86.0834 273.03 86.6983 271.918 87.3318C269.075 88.9574 269.075 88.9574 267.344 90.8122C265.061 93.0946 262.056 93.4064 259 94.156C259.346 91.3037 259.859 90.2865 262.004 88.3044C274.163 79.8769 274.163 79.8769 281 82.156Z" fill="#6C987A"/>
<path d="M119 149.156C119.66 149.156 120.32 149.156 121 149.156C121.33 150.146 121.66 151.136 122 152.156C121.34 152.156 120.68 152.156 120 152.156C120.047 153.077 120.093 153.997 120.141 154.945C120.413 164.489 119.142 172.053 116 181.156C115.34 180.826 114.68 180.496 114 180.156C112.701 174.743 113.228 171.265 115 166.156C115.99 166.156 116.98 166.156 118 166.156C118.33 160.546 118.66 154.936 119 149.156Z" fill="#46A67C"/>
<path d="M95 116.156C100.634 116.587 104.332 118.185 109 121.406C109.608 121.812 110.216 122.217 110.842 122.635C114.955 125.391 119.017 128.216 123 131.156C122.01 131.651 122.01 131.651 121 132.156C118.969 131.222 116.965 130.224 115 129.156C115 128.496 115 127.836 115 127.156C114.325 127.072 113.649 126.989 112.953 126.902C109.183 125.95 106.075 124.168 102.75 122.219C102.113 121.858 101.476 121.498 100.82 121.127C96.1309 118.418 96.1309 118.418 95 116.156Z" fill="#6CBF7E"/>
<path d="M242 123.156C242.99 123.486 243.98 123.816 245 124.156C244.01 124.651 244.01 124.651 243 125.156C243.66 125.816 244.32 126.476 245 127.156C240.25 131.156 240.25 131.156 238 131.156C237.67 132.146 237.34 133.136 237 134.156C234.438 135.344 234.438 135.344 232 136.156C232.66 134.836 233.32 133.516 234 132.156C232.35 132.486 230.7 132.816 229 133.156C230.657 131.81 232.327 130.481 234 129.156C234.663 128.616 235.325 128.076 236.008 127.52C237.056 126.69 237.056 126.69 238.125 125.844C239.119 125.045 239.119 125.045 240.133 124.23C240.749 123.876 241.365 123.521 242 123.156Z" fill="#B5DF88"/>
<path d="M307 81.1557C306.036 81.8427 305.072 82.5298 304.078 83.2377C302.802 84.1478 301.526 85.058 300.25 85.9682C299.299 86.6459 299.299 86.6459 298.328 87.3373C295.191 89.5754 292.068 91.8237 289 94.1557C287.68 93.4957 286.36 92.8357 285 92.1557C286.248 89.6595 287.19 89.4319 289.688 88.2807C293.355 86.5221 296.636 84.4496 300 82.1557C303.571 80.0128 303.571 80.0128 307 81.1557Z" fill="#CDE183"/>
<path d="M184 274.156C184.33 274.156 184.66 274.156 185 274.156C185.167 282.198 184.647 290.142 184 298.156C185.32 297.496 186.64 296.836 188 296.156C186.333 299.49 184.667 302.823 183 306.156C182.67 306.156 182.34 306.156 182 306.156C181.548 295.434 182.885 284.802 184 274.156Z" fill="#61B37E"/>
<path d="M85 111.156C90.4002 112.435 94.1745 115.27 98.5859 118.469C101.306 120.37 103.978 121.804 107 123.156C107 124.146 107 125.136 107 126.156C100.675 124.244 96.631 121.787 92 117.156C90.7627 116.243 89.5118 115.348 88.25 114.469C87.1775 113.706 86.105 112.942 85 112.156C85 111.826 85 111.496 85 111.156Z" fill="#A7D973"/>
<path d="M65 76.1562C76.3807 78.2335 76.3807 78.2335 80 80.1562C80.99 81.6413 80.99 81.6413 82 83.1562C81.67 84.1463 81.34 85.1363 81 86.1562C78.5171 84.8715 76.0387 83.5789 73.5625 82.2812C72.8554 81.9164 72.1484 81.5516 71.4199 81.1758C66.1133 78.3828 66.1133 78.3828 65 76.1562Z" fill="#399571"/>
<path d="M263 82.1562C262.67 83.1463 262.34 84.1363 262 85.1562C261.01 84.4962 260.02 83.8363 259 83.1562C261 82.1562 261 82.1562 263 82.1562ZM259 85.1562C259.66 85.4863 260.32 85.8162 261 86.1562C259.657 90.1855 257.61 91.0269 254.078 93.1484C251.592 94.3539 249.728 94.5826 247 94.1562C248.311 90.2228 249.842 89.8325 253.438 87.9062C254.426 87.3648 255.415 86.8234 256.434 86.2656C257.281 85.8995 258.127 85.5334 259 85.1562Z" fill="#AFDA8A"/>
<path d="M123 98.1562C124.648 98.605 126.294 99.0656 127.938 99.5312C128.854 99.7865 129.771 100.042 130.715 100.305C133 101.156 133 101.156 134 103.156C132.68 103.156 131.36 103.156 130 103.156C132.31 104.806 134.62 106.456 137 108.156C136.01 108.651 136.01 108.651 135 109.156C132.18 107.941 132.18 107.941 128.875 106.219C127.779 105.653 126.684 105.087 125.555 104.504C124.712 104.059 123.869 103.614 123 103.156C123.33 102.496 123.66 101.836 124 101.156C123.67 100.166 123.34 99.1762 123 98.1562Z" fill="#62B47F"/>
<path d="M239 183.156C238.67 183.816 238.34 184.476 238 185.156C234.284 186.227 230.773 187.062 226.938 187.531C224.162 188.122 222.637 188.844 220.25 190.281C219.178 190.9 218.105 191.519 217 192.156C216.34 191.826 215.68 191.496 215 191.156C222.256 184.711 229.299 182.646 239 183.156Z" fill="#73B883"/>
<path d="M163 199.156C163.33 199.156 163.66 199.156 164 199.156C165.102 203.565 165.077 207.64 165 212.156C164.67 212.156 164.34 212.156 164 212.156C163.67 214.136 163.34 216.116 163 218.156C162.34 218.156 161.68 218.156 161 218.156C160.67 215.186 160.34 212.216 160 209.156C160.66 209.156 161.32 209.156 162 209.156C162.33 205.856 162.66 202.556 163 199.156Z" fill="#94D17C"/>
<path d="M187.562 81.405C190 83.155 190 83.155 192 86.155C191.67 87.145 191.34 88.135 191 89.155C187.562 87.6272 184.81 85.6531 182 83.155C182 82.495 182 81.835 182 81.155C185 80.155 185 80.155 187.562 81.405Z" fill="#AFDC84"/>
<path d="M227 182.156C227.66 182.486 228.32 182.816 229 183.156C227 185.156 227 185.156 224.664 186.086C221.08 187.526 218.216 189.681 215.086 191.914C213 193.156 213 193.156 210 193.156C210.375 191.219 210.375 191.219 211 189.156C211.66 188.826 212.32 188.496 213 188.156C213 188.816 213 189.476 213 190.156C213.784 189.661 214.567 189.166 215.375 188.656C218 187.156 218 187.156 220 187.156C220 186.496 220 185.836 220 185.156C222.304 184.09 224.64 183.092 227 182.156Z" fill="#538E74"/>
<path d="M308 89.1562C308.33 89.8163 308.66 90.4762 309 91.1562C307.855 92.7031 307.855 92.7031 306.688 94.2812C304.963 96.6776 303.645 98.8665 302.312 101.531C301 104.156 301 104.156 299 105.156C301.182 94.226 301.182 94.226 305.188 90.9688C306.116 90.3706 307.044 89.7725 308 89.1562Z" fill="#617F73"/>
<path d="M174 90.1562C176.64 90.8163 179.28 91.4762 182 92.1562C182 92.8163 182 93.4762 182 94.1562C185.3 94.4863 188.6 94.8162 192 95.1562C192 95.4863 192 95.8162 192 96.1562C189.938 96.1834 187.875 96.2027 185.812 96.2188C184.664 96.2304 183.515 96.242 182.332 96.2539C179.407 96.1682 176.837 95.8347 174 95.1562C175.32 94.4962 176.64 93.8363 178 93.1562C176.68 92.8262 175.36 92.4963 174 92.1562C174 91.4962 174 90.8363 174 90.1562Z" fill="#B0CD77"/>
<path d="M216 269.156C217 273.156 217 273.156 215.562 275.906C214.789 277.02 214.789 277.02 214 278.156C217.3 277.826 220.6 277.496 224 277.156C224 277.816 224 278.476 224 279.156C222.419 279.521 220.835 279.873 219.25 280.219C218.368 280.416 217.487 280.613 216.578 280.816C214 281.156 214 281.156 210 280.156C211.98 276.526 213.96 272.896 216 269.156Z" fill="#8F9DA3"/>
<path d="M261 90.1568C259.918 93.2949 259.053 94.1259 256.125 95.8443C253.694 96.8652 251.543 97.5678 249 98.1568C255.43 88.3003 255.43 88.3003 261 90.1568Z" fill="#7CB382"/>
<path d="M125 161.156C128.761 164.917 129.941 168.925 130.188 174.094C130.126 175.104 130.064 176.115 130 177.156C129.34 177.156 128.68 177.156 128 177.156C124.556 166.783 124.556 166.783 125 161.156Z" fill="#379474"/>
<path d="M236 100.156C238.143 99.7669 238.143 99.7669 240 99.1562C237.44 102.142 234.606 103.642 231 105.156C228.125 105.344 228.125 105.344 226 105.156C227 102.156 227 102.156 229.875 100.406C233 99.1562 233 99.1562 236 100.156Z" fill="#8AC386"/>
<path d="M73 96.1562C77.8736 96.6096 80.3904 97.8652 84 101.156C83.34 101.156 82.68 101.156 82 101.156C81.67 102.146 81.34 103.136 81 104.156C79.8477 103.395 78.7034 102.622 77.5625 101.844C76.9244 101.414 76.2863 100.985 75.6289 100.543C74 99.1562 74 99.1562 73 96.1562Z" fill="#ADD66C"/>
<path d="M300 96.1562C300.66 96.1562 301.32 96.1562 302 96.1562C301.467 100.683 299.784 103.576 297 107.156C294.75 108.531 294.75 108.531 293 109.156C294.457 106.188 296.012 103.292 297.625 100.406C298.071 99.607 298.517 98.8078 298.977 97.9844C299.314 97.3811 299.652 96.7778 300 96.1562Z" fill="#84B883"/>
<path d="M252 90.1546C249.734 91.4959 247.462 92.8277 245.188 94.1546C244.224 94.7269 244.224 94.7269 243.24 95.3108C238.34 98.1546 238.34 98.1546 235 98.1546C239.135 93.3527 245.434 87.966 252 90.1546Z" fill="#80BA84"/>
<path d="M244.125 66.0927C245.406 66.1017 246.688 66.1107 248.008 66.12C248.995 66.1316 249.983 66.1432 251 66.1552C251 66.4852 251 66.8152 251 67.1552C248.36 67.4852 245.72 67.8152 243 68.1552C243.33 68.8152 243.66 69.4752 244 70.1552C241.03 70.1552 238.06 70.1552 235 70.1552C235 69.1652 235 68.1752 235 67.1552C238.003 65.6536 240.791 66.0624 244.125 66.0927Z" fill="#C3E588"/>
<path d="M107 123.156C111.754 123.651 114.552 124.877 118.375 127.719C119.249 128.359 120.123 129 121.023 129.66C121.676 130.154 122.328 130.648 123 131.156C122.01 131.651 122.01 131.651 121 132.156C118.969 131.222 116.965 130.224 115 129.156C115 128.496 115 127.836 115 127.156C114.237 127.053 113.474 126.95 112.688 126.844C109.829 126.113 108.843 125.387 107 123.156Z" fill="#84C97C"/>
<path d="M88 109.156C92.957 110.395 95.1166 111.942 98 116.156C93.8725 115.549 90.6679 114.118 87 112.156C87.33 111.166 87.66 110.176 88 109.156Z" fill="#5FB980"/>
<path d="M198 95.1562C200.438 95.5312 200.438 95.5312 203 96.1562C203.33 96.8163 203.66 97.4762 204 98.1562C197.231 98.2578 190.697 98.1865 184 97.1562C184 96.8262 184 96.4963 184 96.1562C188.62 96.1562 193.24 96.1562 198 96.1562C198 95.8262 198 95.4963 198 95.1562Z" fill="#B8E083"/>
<path d="M318 72.1562C318 73.1463 318 74.1363 318 75.1562C317.34 75.1562 316.68 75.1562 316 75.1562C315.918 75.8575 315.835 76.5587 315.75 77.2812C314.83 80.809 313.119 83.2174 311 86.1562C310 83.1562 310 83.1562 310.996 81.1133C311.472 80.4056 311.947 79.6979 312.438 78.9688C312.911 78.2533 313.384 77.5379 313.871 76.8008C314.244 76.2581 314.616 75.7154 315 75.1562C313.68 75.4863 312.36 75.8162 311 76.1562C314.625 72.1562 314.625 72.1562 318 72.1562Z" fill="#6A8173"/>
<path d="M232 169.156C232.66 169.486 233.32 169.816 234 170.156C229.877 174.408 225.487 178.293 221 182.156C220.34 181.826 219.68 181.496 219 181.156C219.494 180.758 219.987 180.36 220.496 179.949C221.137 179.419 221.777 178.89 222.438 178.344C223.076 177.822 223.714 177.3 224.371 176.762C226.255 175.148 226.255 175.148 227 172.156C229.438 170.406 229.438 170.406 232 169.156Z" fill="#496C69"/>
<path d="M10 158.156C10.66 158.486 11.32 158.816 12 159.156C9.59984 164.098 6.47727 166.2 2 169.156C2 168.496 2 167.836 2 167.156C1.34 166.826 0.68 166.496 0 166.156C1.36125 165.29 1.36125 165.29 2.75 164.406C5.52023 162.488 7.71946 160.612 10 158.156Z" fill="#41664C"/>
<path d="M200 273.156C200.33 274.146 200.66 275.136 201 276.156C199.82 278.277 199.82 278.277 198.125 280.594C196.045 283.452 194.623 285.652 194 289.156C193.34 289.156 192.68 289.156 192 289.156C192.454 287.738 192.914 286.322 193.375 284.906C193.758 283.723 193.758 283.723 194.148 282.516C194.952 280.29 195.897 278.247 197 276.156C197.66 276.156 198.32 276.156 199 276.156C199.33 275.166 199.66 274.176 200 273.156Z" fill="#439376"/>
<path d="M214 248.156C214.625 249.969 214.625 249.969 215 252.156C214.01 253.641 214.01 253.641 213 255.156C212.34 255.156 211.68 255.156 211 255.156C210.879 255.794 210.758 256.432 210.633 257.09C210.465 257.916 210.298 258.742 210.125 259.594C209.963 260.417 209.8 261.241 209.633 262.09C209.424 262.772 209.215 263.454 209 264.156C208.34 264.486 207.68 264.816 207 265.156C207.99 260.866 208.98 256.576 210 252.156C210.99 252.156 211.98 252.156 213 252.156C213.33 250.836 213.66 249.516 214 248.156Z" fill="#438972"/>
<path d="M260 334.156C260.33 334.816 260.66 335.476 261 336.156C255.034 343.824 255.034 343.824 250 345.156C250.736 344.001 251.489 342.858 252.25 341.719C252.668 341.081 253.085 340.443 253.516 339.785C255.295 337.832 256.499 337.771 259 337.156C259.33 336.166 259.66 335.176 260 334.156Z" fill="#5C8067"/>
<path d="M214 183.156C214 186.156 214 186.156 212.562 188.031C210.799 190.43 210.405 192.239 210 195.156C208.68 195.486 207.36 195.816 206 196.156C210.615 186.541 210.615 186.541 214 183.156Z" fill="#68B182"/>
<path d="M61 112.156C64.6776 115.44 66.8139 118.784 69 123.156C68.67 123.816 68.34 124.476 68 125.156C64.3533 122.888 63.321 121.092 62.25 116.969C62.0077 116.068 61.7653 115.167 61.5156 114.238C61.3455 113.551 61.1753 112.864 61 112.156Z" fill="#2E9473"/>
<path d="M188 91.1562C191.083 92.3552 194.063 93.6333 197 95.1562C197 95.4863 197 95.8162 197 96.1562C191.97 95.6309 186.981 95.0503 182 94.1562C182 93.8262 182 93.4963 182 93.1562C183.98 92.8262 185.96 92.4963 188 92.1562C188 91.8262 188 91.4963 188 91.1562Z" fill="#697C67"/>
<path d="M57 70.1562C66.5945 72.8624 66.5945 72.8624 70 77.1562C61.8074 75.9834 61.8074 75.9834 58.4375 72.5312C57.9631 71.7475 57.4888 70.9638 57 70.1562Z" fill="#3A9874"/>
<path d="M242 127.156C241.34 128.476 240.68 129.796 240 131.156C239.34 131.156 238.68 131.156 238 131.156C237.67 132.146 237.34 133.136 237 134.156C234.438 135.344 234.438 135.344 232 136.156C233.021 132.48 233.914 131.222 237 128.844C240 127.156 240 127.156 242 127.156Z" fill="#C2E585"/>
<path d="M249 143.156C250.32 143.816 251.64 144.476 253 145.156C251.4 145.997 249.795 146.829 248.188 147.656C246.848 148.352 246.848 148.352 245.48 149.062C243 150.156 243 150.156 240 150.156C242.97 147.846 245.94 145.536 249 143.156Z" fill="#7DBA84"/>
<path d="M264 266.156C264.66 266.486 265.32 266.816 266 267.156C262.25 270.156 262.25 270.156 260 270.156C259.67 271.146 259.34 272.136 259 273.156C255.938 274.344 255.938 274.344 253 275.156C253 274.496 253 273.836 253 273.156C253.99 272.826 254.98 272.496 256 272.156C256.454 271.702 256.907 271.249 257.375 270.781C259.395 268.761 261.463 267.457 264 266.156Z" fill="#528C7A"/>
<path d="M188 240.156C188.33 240.156 188.66 240.156 189 240.156C189 243.456 189 246.756 189 250.156C189.66 250.156 190.32 250.156 191 250.156C190.67 251.146 190.34 252.136 190 253.156C189.34 252.826 188.68 252.496 188 252.156C187.608 250.502 187.279 248.833 187 247.156C186.67 246.166 186.34 245.176 186 244.156C186.938 241.969 186.938 241.969 188 240.156Z" fill="#6FC085"/>
<path d="M49 81.1562C52.2185 81.7869 54.508 82.9365 57.25 84.7188C57.9564 85.1738 58.6628 85.6288 59.3906 86.0977C60.1873 86.6217 60.1873 86.6217 61 87.1562C60.67 87.8163 60.34 88.4762 60 89.1562C55.997 87.3949 52.3971 84.8949 49 82.1562C49 81.8262 49 81.4963 49 81.1562Z" fill="#8FC169"/>
<path d="M68 37.1562C68.99 37.4863 69.98 37.8162 71 38.1562C68.03 41.1263 65.06 44.0963 62 47.1562C61.67 46.1662 61.34 45.1762 61 44.1562C63.3333 41.8229 65.6667 39.4896 68 37.1562Z" fill="#B0C962"/>
<path d="M115 169.156C115.33 169.156 115.66 169.156 116 169.156C116.222 170.779 116.427 172.405 116.625 174.031C116.741 174.936 116.857 175.841 116.977 176.773C116.984 177.56 116.992 178.346 117 179.156C116.34 179.816 115.68 180.476 115 181.156C114.856 180.393 114.711 179.63 114.562 178.844C114.037 176.075 114.037 176.075 113 173.156C113.938 170.969 113.938 170.969 115 169.156Z" fill="#389977"/>
<path d="M65 76.1562C67.97 76.6513 67.97 76.6513 71 77.1562C71 77.8163 71 78.4762 71 79.1562C72.2066 79.5894 72.2066 79.5894 73.4375 80.0312C76 81.1562 76 81.1562 77 83.1562C72.391 81.8394 68.8586 80.0043 65 77.1562C65 76.8262 65 76.4963 65 76.1562Z" fill="#2E7E67"/>
<path d="M37 74.1562C40.995 75.526 43.8001 77.4135 47 80.1562C44.8313 79.6502 43.0003 79.1564 41 78.1562C40.67 79.1463 40.34 80.1363 40 81.1562C39.01 78.8463 38.02 76.5363 37 74.1562Z" fill="#4E996C"/>
<path d="M289 252.156C289.66 252.486 290.32 252.816 291 253.156C288.03 256.126 285.06 259.096 282 262.156C281.67 261.496 281.34 260.836 281 260.156C281.954 259.007 282.914 257.862 283.875 256.719C284.409 256.081 284.942 255.443 285.492 254.785C287 253.156 287 253.156 289 252.156Z" fill="#84CA8F"/>
<path d="M225.266 185.475C225.838 185.7 226.41 185.926 227 186.158C225.381 187.189 223.755 188.207 222.125 189.221C221.22 189.789 220.315 190.358 219.383 190.943C218.596 191.344 217.81 191.745 217 192.158C216.34 191.828 215.68 191.498 215 191.158C216.237 190.122 217.49 189.105 218.75 188.096C219.446 187.527 220.142 186.959 220.859 186.373C223 185.158 223 185.158 225.266 185.475Z" fill="#69B281"/>
<path d="M58 110.156C58.99 110.156 59.98 110.156 61 110.156C61.5299 111.611 62.0487 113.07 62.5625 114.531C62.8525 115.343 63.1426 116.155 63.4414 116.992C64 119.156 64 119.156 63 121.156C62.1615 119.701 61.3294 118.242 60.5 116.781C59.8039 115.563 59.8039 115.563 59.0938 114.32C58 112.156 58 112.156 58 110.156Z" fill="#257F68"/>
<path d="M308 84.1562C308.33 84.1562 308.66 84.1562 309 84.1562C309.438 86.3438 309.438 86.3438 309 89.1562C306.86 91.1407 304.498 92.6586 302 94.1562C303.652 90.5766 305.731 87.3764 308 84.1562Z" fill="#A6CE86"/>
<path d="M139 276.156C140.5 277.531 140.5 277.531 142 279.156C142 279.816 142 280.476 142 281.156C140.52 281.043 139.041 280.915 137.562 280.781C136.739 280.712 135.915 280.642 135.066 280.57C134.384 280.434 133.703 280.297 133 280.156C132.67 279.496 132.34 278.836 132 278.156C134.31 278.486 136.62 278.816 139 279.156C139 278.166 139 277.176 139 276.156Z" fill="#8B9BA0"/>
<path d="M219 108.156C219.66 108.816 220.32 109.476 221 110.156C219.734 110.689 218.462 111.207 217.188 111.719C216.48 112.009 215.772 112.299 215.043 112.598C213 113.156 213 113.156 210 112.156C215.732 108.494 215.732 108.494 219 108.156Z" fill="#74B582"/>
<path d="M308 89.1562C308.33 89.8163 308.66 90.4762 309 91.1562C307.377 92.8651 305.707 94.5307 304 96.1562C303.34 96.1562 302.68 96.1562 302 96.1562C303.393 92.789 304.979 91.1703 308 89.1562Z" fill="#79A27D"/>
<path d="M281 82.1543C278.03 83.4743 275.06 84.7943 272 86.1543C272 85.1643 272 84.1743 272 83.1543C277.625 81.0293 277.625 81.0293 281 82.1543Z" fill="#6A9379"/>
<path d="M171 91.1562C175.95 92.1463 175.95 92.1463 181 93.1562C181 93.4863 181 93.8162 181 94.1562C178.03 94.1562 175.06 94.1562 172 94.1562C171.67 93.1662 171.34 92.1762 171 91.1562Z" fill="#D2EB7A"/>
<path d="M85 111.156C88.7755 112.247 91.4704 113.065 94 116.156C93.01 116.651 93.01 116.651 92 117.156C90.8305 116.348 89.6645 115.534 88.5 114.719C87.8503 114.266 87.2006 113.814 86.5312 113.348C86.0259 112.954 85.5206 112.561 85 112.156C85 111.826 85 111.496 85 111.156Z" fill="#92D076"/>
<path d="M131 79.1562C132.481 79.4375 133.96 79.7316 135.438 80.0312C136.673 80.2749 136.673 80.2749 137.934 80.5234C138.616 80.7323 139.297 80.9411 140 81.1562C140.33 81.8163 140.66 82.4762 141 83.1562C138.25 83.4062 138.25 83.4062 135 83.1562C132.625 81.1562 132.625 81.1562 131 79.1562Z" fill="#A0D67D"/>
</svg>
